<svg version="1.1" id="Layer_1" xmlns="http://www.w3.org/2000/svg" xmlns:xlink="http://www.w3.org/1999/xlink" x="0px" y="0px"
	 width="100%" viewBox="0 0 512 512" enable-background="new 0 0 512 512" xml:space="preserve">
<path fill="#1D2E79" opacity="1.000000" stroke="none" 
	d="
M1.000005,300.000000 
	C1.000000,278.979095 1.000000,257.958221 1.408570,236.474686 
	C2.533618,233.065903 3.466764,230.153519 3.932009,227.168213 
	C7.390111,204.978882 14.235700,183.852295 23.766987,163.569580 
	C34.102253,141.575989 47.639828,121.802895 63.710926,103.516151 
	C77.072800,88.312134 92.413696,75.570999 108.885887,64.195374 
	C124.978722,53.081734 142.264252,43.716476 160.937332,37.766235 
	C176.912231,32.675781 193.198074,27.811605 209.719070,25.394585 
	C226.352112,22.961168 243.447281,23.126022 260.335083,23.204268 
	C270.492096,23.251328 280.755402,24.704645 290.761230,26.621017 
	C302.223297,28.816303 313.453094,32.224499 324.622253,35.376240 
	C312.792603,43.277020 303.876740,53.031025 300.170227,67.245575 
	C296.312927,79.991219 299.223419,90.281120 309.767792,98.387451 
	C299.818298,108.492905 289.964905,118.286591 279.806519,127.911240 
	C265.057770,117.542030 248.967590,111.387856 231.414200,110.142982 
	C197.300781,107.723671 168.022476,118.603745 145.701584,144.928207 
	C119.395546,175.952621 114.371552,211.032288 128.522598,248.930267 
	C130.830353,255.110687 134.129837,260.920807 136.626373,267.010010 
	C132.416901,269.600433 128.055069,271.558655 124.779770,274.663177 
	C114.755775,284.164551 105.174881,294.132111 95.373360,303.869720 
	C84.641006,314.532074 73.854813,325.140198 63.051353,335.398193 
	C62.028664,331.990753 61.046715,328.957153 60.215656,325.629120 
	C66.047119,319.453491 67.936279,312.345459 67.446053,304.196289 
	C74.576355,295.457916 81.598228,287.036560 88.186523,278.288666 
	C93.817055,270.812531 92.406639,260.786346 85.433243,255.048630 
	C78.351730,249.221924 68.086418,249.640610 62.112717,256.710419 
	C54.410656,265.825684 47.264389,275.410553 39.503098,284.841797 
	C26.209484,288.611542 20.353590,296.192749 19.948624,309.596954 
	C19.904858,311.045624 19.467518,312.482361 19.043491,314.266815 
	C14.413990,323.915192 13.411875,333.903748 12.751232,343.831635 
	C9.289163,330.131042 6.175100,316.614594 2.950688,303.124451 
	C2.680061,301.992218 1.667745,301.037292 1.000005,300.000000 
z"/>
<path fill="#FFC7AB" opacity="1.000000" stroke="none" 
	d="
M513.000000,54.000008 
	C513.000000,63.020893 513.000000,72.041786 512.685669,81.228722 
	C508.404510,90.317902 503.656677,98.560867 496.383759,105.463982 
	C492.679779,108.979591 489.960052,114.051033 488.125854,118.920364 
	C482.644989,133.470734 477.026123,147.860031 466.530060,159.993103 
	C465.079865,160.991623 463.899414,161.880768 462.864960,162.915771 
	C442.016846,183.774399 421.245728,204.710480 400.321747,225.492676 
	C391.673431,234.082397 379.682678,233.264740 371.834167,223.913803 
	C366.663757,217.753647 366.286743,210.834991 368.779449,203.226669 
	C361.349274,211.440720 352.872162,216.605972 342.074463,211.735474 
	C331.058838,206.766693 329.321655,197.087936 331.999176,186.123657 
	C328.001373,187.372208 324.548706,188.450500 320.663879,189.446152 
	C313.058350,189.468613 307.422119,186.579605 303.510834,180.561859 
	C299.678101,174.665009 300.351624,168.332916 302.152924,161.663849 
	C304.580475,158.726562 306.677521,155.907715 309.141785,153.458282 
	C347.997437,114.836563 386.484161,75.828712 426.004791,37.898514 
	C441.039764,23.468584 460.435486,19.161108 481.197540,23.610434 
	C485.221924,24.472860 489.141541,25.824184 493.413757,27.083652 
	C501.501190,34.492985 508.520416,42.272270 511.117828,53.061245 
	C511.223419,53.499794 512.349426,53.692677 513.000000,54.000008 
z"/>
<path fill="#000000" opacity="1.000000" stroke="none" 
	d="
M324.783783,35.105743 
	C313.453094,32.224499 302.223297,28.816303 290.761230,26.621017 
	C280.755402,24.704645 270.492096,23.251328 260.335083,23.204268 
	C243.447281,23.126022 226.352112,22.961168 209.719070,25.394585 
	C193.198074,27.811605 176.912231,32.675781 160.937332,37.766235 
	C142.264252,43.716476 124.978722,53.081734 108.885887,64.195374 
	C92.413696,75.570999 77.072800,88.312134 63.710926,103.516151 
	C47.639828,121.802895 34.102253,141.575989 23.766987,163.569580 
	C14.235700,183.852295 7.390111,204.978882 3.932009,227.168213 
	C3.466764,230.153519 2.533618,233.065903 1.408570,236.006027 
	C1.000000,157.718140 1.000000,79.436264 1.000000,1.000000 
	C144.354187,1.000000 287.708435,1.000000 431.830658,1.314287 
	C427.097565,4.557982 420.787262,6.586344 416.285919,10.628933 
	C409.609772,16.624649 402.632385,20.894455 393.665558,21.694355 
	C391.548615,21.883196 389.422607,22.027481 387.322632,22.339413 
	C377.049255,23.865412 366.774231,25.384279 356.517151,27.014944 
	C345.696075,28.735279 334.576263,29.332956 324.783783,35.105743 
z"/>
<path fill="#1D2E79" opacity="1.000000" stroke="none" 
	d="
M278.000000,513.000000 
	C257.312439,513.000000 236.624878,513.000000 215.477463,512.591064 
	C214.353348,511.795837 213.732956,511.210052 213.018326,511.052948 
	C198.929474,507.955414 184.613480,505.647400 170.802094,501.610413 
	C160.174774,498.504120 150.179428,493.235626 140.087296,488.639648 
	C156.709000,478.310669 168.544983,463.254120 182.363464,449.896851 
	C186.797623,445.527924 190.924057,441.285553 195.352219,436.901367 
	C201.297958,431.106140 207.100800,425.600647 212.542603,419.758850 
	C218.315399,413.561707 220.122528,406.138519 217.417419,398.028107 
	C214.814377,390.223602 209.031891,385.646057 201.033142,384.473877 
	C197.531052,383.960693 193.814209,384.913025 190.066940,385.068420 
	C189.938995,384.936981 189.684937,384.672363 189.770462,384.318542 
	C194.350327,376.042908 194.624542,368.080444 189.251984,360.567139 
	C183.041977,351.882660 174.303009,350.343628 164.318909,353.061707 
	C171.508438,340.438446 171.862320,331.383636 165.581116,323.981415 
	C159.883209,317.266571 151.286804,315.014984 142.701889,317.571991 
	C144.679962,315.117615 146.514542,313.005402 148.463440,311.004547 
	C153.749023,305.578064 159.877350,300.796936 162.358414,293.025635 
	C168.199982,296.100677 173.447983,299.752472 179.232834,302.056244 
	C187.956421,305.530396 197.054947,308.063110 206.158051,311.284912 
	C235.277802,340.589691 264.202026,369.637238 293.247772,398.562775 
	C295.636963,400.942047 296.036530,402.776917 294.752319,405.895691 
	C288.860077,420.205353 283.305359,434.653534 277.518250,449.007141 
	C275.572113,453.833954 274.980347,458.520752 278.898895,462.498169 
	C287.426605,471.153931 296.152618,479.614288 304.872009,488.591705 
	C306.250183,494.715302 307.553864,500.401642 308.450684,506.051514 
	C298.407623,507.717377 288.767090,509.396545 279.148071,511.191193 
	C278.669525,511.280487 278.378387,512.374023 278.000000,513.000000 
z"/>
<path fill="#000000" opacity="1.000000" stroke="none" 
	d="
M513.000000,334.000000 
	C513.000000,393.593658 513.000000,453.187347 513.000000,513.000000 
	C453.645966,513.000000 394.291626,513.000000 334.174194,512.706665 
	C341.358490,507.929565 345.955078,501.367889 346.418304,491.986206 
	C357.375946,486.209229 368.253632,480.921173 378.504822,474.614685 
	C393.734100,465.245728 407.620483,454.045837 420.469543,441.066071 
	C422.647095,440.803223 424.482483,440.852264 426.144745,440.339783 
	C437.140564,436.949860 440.952026,430.904541 441.300262,416.849487 
	C458.550354,393.895660 471.709808,369.161835 480.464600,342.123993 
	C493.838623,349.128876 503.133392,346.715424 511.163849,334.455505 
	C511.417206,334.068695 512.372131,334.141479 513.000000,334.000000 
z"/>
<path fill="#FEAA7B" opacity="1.000000" stroke="none" 
	d="
M324.622253,35.376244 
	C334.576263,29.332956 345.696075,28.735279 356.517151,27.014944 
	C366.774231,25.384279 377.049255,23.865412 387.322632,22.339413 
	C389.422607,22.027481 391.548615,21.883196 393.665558,21.694355 
	C402.632385,20.894455 409.609772,16.624649 416.285919,10.628933 
	C420.787262,6.586344 427.097565,4.557982 432.299316,1.314287 
	C441.354218,1.000000 450.708466,1.000000 460.229675,1.305943 
	C461.015503,2.085382 461.564697,2.775942 462.263550,3.000228 
	C475.464569,7.236894 484.131439,17.290791 493.109467,26.949980 
	C489.141541,25.824184 485.221924,24.472860 481.197540,23.610434 
	C460.435486,19.161108 441.039764,23.468584 426.004791,37.898514 
	C386.484161,75.828712 347.997437,114.836563 309.141785,153.458282 
	C306.677521,155.907715 304.580475,158.726562 301.816833,161.725693 
	C288.534882,174.819855 275.748749,187.561874 262.672241,200.423935 
	C260.136047,202.763550 257.964233,205.064438 255.631027,207.187958 
	C247.599503,214.497681 235.930054,214.411606 228.638947,207.057907 
	C221.079346,199.433426 221.162918,187.861435 228.844299,179.741455 
	C231.573166,176.856766 234.319061,173.988205 237.363129,170.972549 
	C251.816574,156.581970 265.964050,142.331131 280.111542,128.080276 
	C289.964905,118.286591 299.818298,108.492905 310.076843,98.238266 
	C315.563049,92.776649 320.667297,87.799278 325.718384,82.768555 
	C330.381927,78.123817 331.312500,72.680397 328.330414,68.004921 
	C325.373993,63.369606 320.576019,62.033447 314.293243,63.739590 
	C309.688507,64.990028 304.984863,65.876045 300.325287,66.924484 
	C303.876740,53.031025 312.792603,43.277020 324.622253,35.376244 
z"/>
<path fill="#000000" opacity="1.000000" stroke="none" 
	d="
M139.903061,488.928619 
	C150.179428,493.235626 160.174774,498.504120 170.802094,501.610413 
	C184.613480,505.647400 198.929474,507.955414 213.018326,511.052948 
	C213.732956,511.210052 214.353348,511.795837 215.008804,512.591064 
	C143.739807,513.000000 72.479622,513.000000 1.000000,513.000000 
	C1.000000,442.312592 1.000000,371.624939 1.000005,300.468658 
	C1.667745,301.037292 2.680061,301.992218 2.950688,303.124451 
	C6.175100,316.614594 9.289163,330.131042 12.819763,344.218750 
	C17.529917,355.546509 21.852449,366.296204 26.225319,377.396423 
	C35.336521,395.854187 46.331619,412.672577 59.875908,428.222046 
	C64.013695,432.721069 67.975449,436.907715 72.058044,441.406799 
	C77.626892,446.411102 83.074905,451.102905 88.743179,456.101898 
	C93.558693,459.925537 98.153961,463.441986 102.914124,467.278198 
	C108.368233,471.224945 113.451454,475.211823 118.999359,478.386688 
	C125.763168,482.257324 132.917587,485.445343 139.903061,488.928619 
z"/>
<path fill="#000000" opacity="1.000000" stroke="none" 
	d="
M466.867828,159.951675 
	C477.026123,147.860031 482.644989,133.470734 488.125854,118.920364 
	C489.960052,114.051033 492.679779,108.979591 496.383759,105.463982 
	C503.656677,98.560867 508.404510,90.317902 512.685669,81.697380 
	C513.000000,159.687561 513.000000,237.375122 512.707947,315.826355 
	C511.414734,315.347809 510.320221,314.168915 509.428192,312.852783 
	C505.005951,306.328125 496.360931,302.956573 488.973328,304.771729 
	C488.928375,304.586456 488.836090,304.215912 488.892090,303.777527 
	C489.631561,292.121582 490.648682,280.911255 490.892426,269.684204 
	C491.086212,260.758331 490.996674,251.725723 489.846619,242.895004 
	C488.149902,229.866974 486.424652,216.683487 482.832855,204.102554 
	C478.546875,189.089905 472.277832,174.643417 466.867828,159.951675 
z"/>
<path fill="#FEF156" opacity="1.000000" stroke="none" 
	d="
M489.018280,304.957031 
	C496.360931,302.956573 505.005951,306.328125 509.428192,312.852783 
	C510.320221,314.168915 511.414734,315.347809 512.707947,316.294983 
	C513.000000,321.688049 513.000000,327.376068 513.000000,333.532043 
	C512.372131,334.141479 511.417206,334.068695 511.163849,334.455505 
	C503.133392,346.715424 493.838623,349.128876 480.367859,341.790161 
	C474.511841,335.717407 471.519897,329.257721 472.913666,320.894592 
	C475.260773,312.164337 481.051605,307.440308 489.018280,304.957031 
z"/>
<path fill="#58D3FA" opacity="1.000000" stroke="none" 
	d="
M346.058075,492.019562 
	C345.955078,501.367889 341.358490,507.929565 333.705536,512.706665 
	C328.311951,513.000000 322.623932,513.000000 316.761292,512.711060 
	C314.010284,510.310699 311.433929,508.199371 308.857544,506.088013 
	C307.553864,500.401642 306.250183,494.715302 305.156921,488.364746 
	C308.067017,479.985107 313.147919,474.802673 321.656189,472.797577 
	C335.495300,471.239563 343.132324,480.395538 344.926331,488.357330 
	C345.206299,489.600006 345.676056,490.799896 346.058075,492.019562 
z"/>
<path fill="#000000" opacity="1.000000" stroke="none" 
	d="
M493.413757,27.083649 
	C484.131439,17.290791 475.464569,7.236894 462.263550,3.000228 
	C461.564697,2.775942 461.015503,2.085382 460.698303,1.305943 
	C478.260803,1.000000 495.521606,1.000000 513.000000,1.000000 
	C513.000000,18.353622 513.000000,35.708153 513.000000,53.531349 
	C512.349426,53.692677 511.223419,53.499794 511.117828,53.061245 
	C508.520416,42.272270 501.501190,34.492985 493.413757,27.083649 
z"/>
<path fill="#000000" opacity="1.000000" stroke="none" 
	d="
M308.450684,506.051514 
	C311.433929,508.199371 314.010284,510.310699 316.293335,512.711060 
	C303.645782,513.000000 291.291534,513.000000 278.468658,513.000000 
	C278.378387,512.374023 278.669525,511.280487 279.148071,511.191193 
	C288.767090,509.396545 298.407623,507.717377 308.450684,506.051514 
z"/>
<path fill="#3F57A0" opacity="1.000000" stroke="none" 
	d="
M279.806519,127.911240 
	C265.964050,142.331131 251.816574,156.581970 236.982452,170.877563 
	C228.116196,167.918976 219.870071,167.515640 211.384171,169.735001 
	C193.109833,174.514404 176.478058,191.950928 180.045563,218.993362 
	C176.114990,223.076874 172.461212,226.939056 168.612900,230.596542 
	C163.627060,235.335190 161.178223,241.058029 160.855042,247.966248 
	C149.048935,249.606583 143.601898,254.811188 140.486816,266.732422 
	C139.053436,266.796509 138.012177,266.849274 136.970932,266.902039 
	C134.129837,260.920807 130.830353,255.110687 128.522598,248.930267 
	C114.371552,211.032288 119.395546,175.952621 145.701584,144.928207 
	C168.022476,118.603745 197.300781,107.723671 231.414200,110.142982 
	C248.967590,111.387856 265.057770,117.542030 279.806519,127.911240 
z"/>
<path fill="#ACE9F7" opacity="1.000000" stroke="none" 
	d="
M136.626373,267.010010 
	C138.012177,266.849274 139.053436,266.796509 140.533142,267.177002 
	C141.554016,280.359436 148.834610,287.434113 162.236465,288.679718 
	C162.150726,290.381744 162.077942,291.690369 162.005157,292.998962 
	C159.877350,300.796936 153.749023,305.578064 148.463440,311.004547 
	C146.514542,313.005402 144.679962,315.117615 142.503143,317.752502 
	C137.388947,322.798218 132.532288,327.235962 127.748756,331.751190 
	C121.287277,337.850220 114.882027,344.008759 108.093033,350.116028 
	C102.977089,348.057770 99.113548,349.399292 95.598839,352.970886 
	C87.325691,361.377838 79.083740,369.825714 70.530731,377.942566 
	C66.435867,381.828583 65.308945,386.072327 66.317520,391.402496 
	C67.642212,398.403168 68.957733,405.429810 69.678642,412.506256 
	C69.905434,414.732422 68.655602,417.472748 67.284241,419.414581 
	C65.108627,422.495239 62.262398,425.102264 59.699875,427.909668 
	C46.331619,412.672577 35.336521,395.854187 26.465500,377.167664 
	C32.079041,369.892792 37.249916,362.970703 42.993736,356.562103 
	C49.422413,349.389374 56.370193,342.681885 63.092087,335.771973 
	C73.854813,325.140198 84.641006,314.532074 95.373360,303.869720 
	C105.174881,294.132111 114.755775,284.164551 124.779770,274.663177 
	C128.055069,271.558655 132.416901,269.600433 136.626373,267.010010 
z"/>
<path fill="#27A6FE" opacity="1.000000" stroke="none" 
	d="
M19.212740,313.924652 
	C19.467518,312.482361 19.904858,311.045624 19.948624,309.596954 
	C20.353590,296.192749 26.209484,288.611542 39.964279,284.862427 
	C55.497749,284.640930 63.343613,290.458588 67.149536,304.371613 
	C67.936279,312.345459 66.047119,319.453491 59.901443,325.786377 
	C45.435165,337.526123 26.351278,331.357361 21.061897,315.939545 
	C20.790846,315.149445 19.844616,314.590973 19.212740,313.924652 
z"/>
<path fill="#58D3F9" opacity="1.000000" stroke="none" 
	d="
M19.043488,314.266815 
	C19.844616,314.590973 20.790846,315.149445 21.061897,315.939545 
	C26.351278,331.357361 45.435165,337.526123 59.750557,326.080750 
	C61.046715,328.957153 62.028664,331.990753 63.051346,335.398193 
	C56.370193,342.681885 49.422413,349.389374 42.993736,356.562103 
	C37.249916,362.970703 32.079041,369.892792 26.415165,376.817078 
	C21.852449,366.296204 17.529917,355.546509 13.138853,344.409729 
	C13.411875,333.903748 14.413990,323.915192 19.043488,314.266815 
z"/>
<path fill="#ABE7F6" opacity="1.000000" stroke="none" 
	d="
M67.446053,304.196289 
	C63.343613,290.458588 55.497749,284.640930 40.339951,284.813812 
	C47.264389,275.410553 54.410656,265.825684 62.112717,256.710419 
	C68.086418,249.640610 78.351730,249.221924 85.433243,255.048630 
	C92.406639,260.786346 93.817055,270.812531 88.186523,278.288666 
	C81.598228,287.036560 74.576355,295.457916 67.446053,304.196289 
z"/>
<path fill="#F6965B" opacity="1.000000" stroke="none" 
	d="
M300.170227,67.245567 
	C304.984863,65.876045 309.688507,64.990028 314.293243,63.739590 
	C320.576019,62.033447 325.373993,63.369606 328.330414,68.004921 
	C331.312500,72.680397 330.381927,78.123817 325.718384,82.768555 
	C320.667297,87.799278 315.563049,92.776649 310.172913,97.926491 
	C299.223419,90.281120 296.312927,79.991219 300.170227,67.245567 
z"/>
<path fill="#1E2F79" opacity="1.000000" stroke="none" 
	d="
M466.530060,159.993103 
	C472.277832,174.643417 478.546875,189.089905 482.832855,204.102554 
	C486.424652,216.683487 488.149902,229.866974 489.846619,242.895004 
	C490.996674,251.725723 491.086212,260.758331 490.892426,269.684204 
	C490.648682,280.911255 489.631561,292.121582 488.569366,303.677063 
	C480.369507,296.308319 472.437805,288.709595 464.768555,280.854584 
	C460.129944,276.103638 455.230835,274.930054 449.000397,277.499237 
	C434.870880,283.325684 420.565765,288.726776 406.444733,294.572998 
	C403.044281,295.980835 400.995117,295.710480 398.310577,292.995026 
	C374.667603,269.079590 350.848480,245.338196 327.065674,221.561172 
	C325.787048,220.282852 324.366394,219.146637 323.015503,217.479630 
	C322.378143,207.852921 321.737091,198.690857 321.096069,189.528809 
	C324.548706,188.450500 328.001373,187.372208 331.999176,186.123657 
	C329.321655,197.087936 331.058838,206.766693 342.074463,211.735474 
	C352.872162,216.605972 361.349274,211.440720 368.779449,203.226669 
	C366.286743,210.834991 366.663757,217.753647 371.834167,223.913803 
	C379.682678,233.264740 391.673431,234.082397 400.321747,225.492676 
	C421.245728,204.710480 442.016846,183.774399 462.864960,162.915771 
	C463.899414,161.880768 465.079865,160.991623 466.530060,159.993103 
z"/>
<path fill="#3F57A0" opacity="1.000000" stroke="none" 
	d="
M320.663910,189.446152 
	C321.737091,198.690857 322.378143,207.852921 322.959473,217.891525 
	C321.196747,227.495026 319.493713,236.221970 317.551422,245.194031 
	C313.940186,252.037720 310.841827,258.796082 307.110626,265.184845 
	C304.065491,270.398834 300.264191,275.171173 296.474060,280.163025 
	C290.388000,285.124268 284.626007,290.061768 278.522583,295.050934 
	C271.736664,298.372406 265.466003,302.067871 258.798126,304.790558 
	C252.326294,307.433136 245.446747,309.077240 238.311646,311.106323 
	C227.249405,311.033875 216.621750,311.014923 205.994110,310.995972 
	C197.054947,308.063110 187.956421,305.530396 179.232834,302.056244 
	C173.447983,299.752472 168.199982,296.100677 162.358414,293.025635 
	C162.077942,291.690369 162.150726,290.381744 162.613068,288.615173 
	C173.920486,286.578003 180.088043,279.748077 181.657486,267.961975 
	C188.409683,268.099030 193.686981,265.694061 198.163742,261.291534 
	C201.710281,257.803772 205.319885,254.380173 209.258850,251.099899 
	C214.703674,251.860916 219.804199,253.049179 224.876373,252.938477 
	C250.562012,252.377914 270.232666,225.017868 262.962616,200.303909 
	C275.748749,187.561874 288.534882,174.819855 301.657166,162.015991 
	C300.351624,168.332916 299.678101,174.665009 303.510834,180.561859 
	C307.422119,186.579605 313.058350,189.468613 320.663910,189.446152 
z"/>
<path fill="#E7F7FC" opacity="1.000000" stroke="none" 
	d="
M108.452637,350.141754 
	C114.882027,344.008759 121.287277,337.850220 127.748756,331.751190 
	C132.532288,327.235962 137.388947,322.798218 142.411774,318.145447 
	C151.286804,315.014984 159.883209,317.266571 165.581116,323.981415 
	C171.862320,331.383636 171.508438,340.438446 164.318909,353.061707 
	C174.303009,350.343628 183.041977,351.882660 189.251984,360.567139 
	C194.624542,368.080444 194.350327,376.042908 189.550964,384.461456 
	C189.259628,385.191498 189.273331,385.424835 189.287033,385.658142 
	C189.589661,385.505402 189.892273,385.352631 190.194885,385.199890 
	C193.814209,384.913025 197.531052,383.960693 201.033142,384.473877 
	C209.031891,385.646057 214.814377,390.223602 217.417419,398.028107 
	C220.122528,406.138519 218.315399,413.561707 212.542603,419.758850 
	C207.100800,425.600647 201.297958,431.106140 195.176300,436.616028 
	C182.919342,424.685272 171.151917,412.886169 159.355957,401.115631 
	C152.971283,394.744690 148.650345,394.702637 142.375732,400.965698 
	C125.392036,417.917938 108.423134,434.885071 91.485092,451.882935 
	C90.341187,453.030884 89.503189,454.483673 88.522911,455.794678 
	C83.074905,451.102905 77.626892,446.411102 72.322968,441.196289 
	C76.829079,436.343536 81.127846,431.947449 85.575150,427.707153 
	C88.592697,424.830078 89.818298,421.494415 89.175797,417.384216 
	C87.946068,409.517548 86.581596,401.662842 85.715126,393.754730 
	C85.487480,391.677002 86.249725,388.832031 87.636681,387.348389 
	C94.213051,380.313507 101.179535,373.644348 107.974800,366.812836 
	C114.104759,360.650116 114.193344,356.856964 108.452637,350.141754 
z"/>
<path fill="#27A4FD" opacity="1.000000" stroke="none" 
	d="
M206.158051,311.284912 
	C216.621750,311.014923 227.249405,311.033875 238.498169,311.389282 
	C264.539398,337.195068 289.875824,362.749023 315.445068,388.067749 
	C321.050690,393.618378 322.358765,399.150269 319.286346,406.461792 
	C313.487122,420.262451 308.356689,434.343750 302.587463,448.157715 
	C301.154663,451.588379 301.855896,453.450989 304.316925,455.799744 
	C310.095398,461.314697 315.601532,467.114990 321.217896,472.799805 
	C313.147919,474.802673 308.067017,479.985107 305.082458,487.927521 
	C296.152618,479.614288 287.426605,471.153931 278.898895,462.498169 
	C274.980347,458.520752 275.572113,453.833954 277.518250,449.007141 
	C283.305359,434.653534 288.860077,420.205353 294.752319,405.895691 
	C296.036530,402.776917 295.636963,400.942047 293.247772,398.562775 
	C264.202026,369.637238 235.277802,340.589691 206.158051,311.284912 
z"/>
<path fill="#E7F7FC" opacity="1.000000" stroke="none" 
	d="
M140.087296,488.639648 
	C132.917587,485.445343 125.763168,482.257324 118.999359,478.386688 
	C113.451454,475.211823 108.368233,471.224945 103.093979,466.989410 
	C118.855957,450.609863 134.602997,434.838898 151.302750,418.113770 
	C161.746384,428.950195 171.901062,439.486816 182.055740,450.023407 
	C168.544983,463.254120 156.709000,478.310669 140.087296,488.639648 
z"/>
<path fill="#42EADD" opacity="1.000000" stroke="none" 
	d="
M182.363464,449.896851 
	C171.901062,439.486816 161.746384,428.950195 151.302750,418.113770 
	C134.602997,434.838898 118.855957,450.609863 102.929077,466.669617 
	C98.153961,463.441986 93.558693,459.925537 88.743164,456.101898 
	C89.503189,454.483673 90.341187,453.030884 91.485092,451.882935 
	C108.423134,434.885071 125.392036,417.917938 142.375732,400.965698 
	C148.650345,394.702637 152.971283,394.744690 159.355957,401.115631 
	C171.151917,412.886169 182.919342,424.685272 194.874573,436.757843 
	C190.924057,441.285553 186.797623,445.527924 182.363464,449.896851 
z"/>
<path fill="#1D2E79" opacity="1.000000" stroke="none" 
	d="
M321.656189,472.797577 
	C315.601532,467.114990 310.095398,461.314697 304.316925,455.799744 
	C301.855896,453.450989 301.154663,451.588379 302.587463,448.157715 
	C308.356689,434.343750 313.487122,420.262451 319.286346,406.461792 
	C322.358765,399.150269 321.050690,393.618378 315.445068,388.067749 
	C289.875824,362.749023 264.539398,337.195068 238.932770,311.442749 
	C245.446747,309.077240 252.326294,307.433136 258.798126,304.790558 
	C265.466003,302.067871 271.736664,298.372406 278.741913,295.310089 
	C318.494781,334.741211 357.685486,373.966217 396.886261,413.181152 
	C397.940125,414.235352 399.103241,415.180359 400.248108,416.606018 
	C399.846710,430.948273 405.403351,437.718231 420.047302,441.118195 
	C407.620483,454.045837 393.734100,465.245728 378.504822,474.614685 
	C368.253632,480.921173 357.375946,486.209229 346.418304,491.986206 
	C345.676056,490.799896 345.206299,489.600006 344.926331,488.357330 
	C343.132324,480.395538 335.495300,471.239563 321.656189,472.797577 
z"/>
<path fill="#1D2E79" opacity="1.000000" stroke="none" 
	d="
M296.798157,280.139313 
	C300.264191,275.171173 304.065491,270.398834 307.110626,265.184845 
	C310.841827,258.796082 313.940186,252.037720 317.821747,245.414062 
	C341.884369,268.969604 365.500061,292.488312 388.940460,316.180389 
	C393.950012,321.243774 399.113312,322.265930 405.632660,319.585541 
	C419.936035,313.704865 434.389404,308.189789 448.715302,302.362671 
	C451.388275,301.275452 453.082275,301.487274 455.146942,303.651031 
	C460.890289,309.669891 466.918152,315.417297 472.833618,321.271912 
	C471.519897,329.257721 474.511841,335.717407 480.034302,341.648254 
	C471.709808,369.161835 458.550354,393.895660 441.031738,416.607422 
	C436.669342,404.550964 430.407715,400.331055 416.018250,399.879181 
	C397.159943,380.853699 378.473206,362.144104 359.806305,343.414703 
	C338.794250,322.332214 317.800079,301.231903 296.798157,280.139313 
z"/>
<path fill="#63F7E9" opacity="1.000000" stroke="none" 
	d="
M416.198608,400.186310 
	C430.407715,400.331055 436.669342,404.550964 440.751373,416.794250 
	C440.952026,430.904541 437.140564,436.949860 426.144745,440.339783 
	C424.482483,440.852264 422.647095,440.803223 420.469543,441.066071 
	C405.403351,437.718231 399.846710,430.948273 400.476074,416.335266 
	C402.923920,407.547272 408.673615,402.974609 416.198608,400.186310 
z"/>
<path fill="#04C0FB" opacity="1.000000" stroke="none" 
	d="
M262.672241,200.423935 
	C270.232666,225.017868 250.562012,252.377914 224.876373,252.938477 
	C219.804199,253.049179 214.703674,251.860916 209.397675,250.795166 
	C210.670746,248.754288 212.275635,247.282120 213.635834,245.610825 
	C223.288284,233.750519 217.922882,216.122589 203.290909,211.764404 
	C194.157822,209.044083 186.702576,212.311737 180.235886,218.681015 
	C176.478058,191.950928 193.109833,174.514404 211.384171,169.735001 
	C219.870071,167.515640 228.116196,167.918976 236.676514,171.017288 
	C234.319061,173.988205 231.573166,176.856766 228.844299,179.741455 
	C221.162918,187.861435 221.079346,199.433426 228.638947,207.057907 
	C235.930054,214.411606 247.599503,214.497681 255.631027,207.187958 
	C257.964233,205.064438 260.136047,202.763550 262.672241,200.423935 
z"/>
<path fill="#05C1FC" opacity="1.000000" stroke="none" 
	d="
M108.093025,350.116028 
	C114.193344,356.856964 114.104759,360.650116 107.974800,366.812836 
	C101.179535,373.644348 94.213051,380.313507 87.636681,387.348389 
	C86.249725,388.832031 85.487480,391.677002 85.715126,393.754730 
	C86.581596,401.662842 87.946068,409.517548 89.175797,417.384216 
	C89.818298,421.494415 88.592697,424.830078 85.575150,427.707153 
	C81.127846,431.947449 76.829079,436.343536 72.202126,440.883789 
	C67.975449,436.907715 64.013695,432.721069 59.875908,428.222046 
	C62.262398,425.102264 65.108627,422.495239 67.284241,419.414581 
	C68.655602,417.472748 69.905434,414.732422 69.678642,412.506256 
	C68.957733,405.429810 67.642212,398.403168 66.317520,391.402496 
	C65.308945,386.072327 66.435867,381.828583 70.530731,377.942566 
	C79.083740,369.825714 87.325691,361.377838 95.598839,352.970886 
	C99.113548,349.399292 102.977089,348.057770 108.093025,350.116028 
z"/>
<path fill="#FCC043" opacity="1.000000" stroke="none" 
	d="
M472.913666,320.894592 
	C466.918152,315.417297 460.890289,309.669891 455.146942,303.651031 
	C453.082275,301.487274 451.388275,301.275452 448.715302,302.362671 
	C434.389404,308.189789 419.936035,313.704865 405.632660,319.585541 
	C399.113312,322.265930 393.950012,321.243774 388.940460,316.180389 
	C365.500061,292.488312 341.884369,268.969604 318.061005,245.168945 
	C319.493713,236.221970 321.196747,227.495026 322.955811,218.356186 
	C324.366394,219.146637 325.787048,220.282852 327.065674,221.561172 
	C350.848480,245.338196 374.667603,269.079590 398.310577,292.995026 
	C400.995117,295.710480 403.044281,295.980835 406.444733,294.572998 
	C420.565765,288.726776 434.870880,283.325684 449.000397,277.499237 
	C455.230835,274.930054 460.129944,276.103638 464.768555,280.854584 
	C472.437805,288.709595 480.369507,296.308319 488.513367,304.115479 
	C488.836090,304.215912 488.928375,304.586456 488.973328,304.771729 
	C481.051605,307.440308 475.260773,312.164337 472.913666,320.894592 
z"/>
<path fill="#E6F7FC" opacity="1.000000" stroke="none" 
	d="
M180.045563,218.993362 
	C186.702576,212.311737 194.157822,209.044083 203.290909,211.764404 
	C217.922882,216.122589 223.288284,233.750519 213.635834,245.610825 
	C212.275635,247.282120 210.670746,248.754288 209.040314,250.623367 
	C205.319885,254.380173 201.710281,257.803772 198.163742,261.291534 
	C193.686981,265.694061 188.409683,268.099030 181.586426,267.558167 
	C179.798294,255.830978 173.691620,249.908371 161.267395,247.904388 
	C161.178223,241.058029 163.627060,235.335190 168.612900,230.596542 
	C172.461212,226.939056 176.114990,223.076874 180.045563,218.993362 
z"/>
<path fill="#04C0FC" opacity="1.000000" stroke="none" 
	d="
M160.855042,247.966248 
	C173.691620,249.908371 179.798294,255.830978 181.176880,267.548645 
	C180.088043,279.748077 173.920486,286.578003 162.626038,288.221741 
	C148.834610,287.434113 141.554016,280.359436 140.925293,267.165649 
	C143.601898,254.811188 149.048935,249.606583 160.855042,247.966248 
z"/>
<path fill="#03BDFA" opacity="1.000000" stroke="none" 
	d="
M416.018250,399.879181 
	C408.673615,402.974609 402.923920,407.547272 400.443359,415.905579 
	C399.103241,415.180359 397.940125,414.235352 396.886261,413.181152 
	C357.685486,373.966217 318.494781,334.741211 279.083374,295.258423 
	C284.626007,290.061768 290.388000,285.124268 296.474060,280.163025 
	C317.800079,301.231903 338.794250,322.332214 359.806305,343.414703 
	C378.473206,362.144104 397.159943,380.853699 416.018250,399.879181 
z"/>
<path fill="#1D2E79" opacity="1.000000" stroke="none" 
	d="
M190.066940,385.068420 
	C189.892273,385.352631 189.589661,385.505402 189.287033,385.658142 
	C189.273331,385.424835 189.259628,385.191498 189.465424,384.815277 
	C189.684937,384.672363 189.938995,384.936981 190.066940,385.068420 
z"/>
</svg>